<svg width="89" height="89" viewBox="0 0 89 89" fill="none" xmlns="http://www.w3.org/2000/svg">
<path d="M21.8827 40.8575C22.6644 34.931 27.9032 29.5667 37.486 24.8921L39.2116 24.0502L32.137 10.9888L30.5399 11.7983C10.2752 22.0707 0 36.5879 0 54.9473C0 61.2819 2.01084 66.753 5.97708 71.2089C9.99894 75.7269 14.8797 78.0178 20.4848 78.0178C25.5211 78.0178 29.7917 76.2244 33.1779 72.6868C36.542 69.172 38.2478 64.8063 38.2478 59.7107C38.2478 54.8957 36.5248 50.6046 33.1266 46.9566C30.1295 43.7389 26.3529 41.692 21.8827 40.8575ZM30.519 70.1418C27.8167 72.9649 24.5345 74.3371 20.4848 74.3371C15.9122 74.3371 12.0661 72.5133 8.72669 68.7616C5.33113 64.9471 3.68046 60.4284 3.68046 54.9471C3.68046 46.5326 6.04991 38.9358 10.7226 32.3681C15.1811 26.1017 21.8683 20.5693 30.6155 15.9065L34.1597 22.4498C23.5005 28.0356 18.0999 34.7502 18.0999 42.4268V44.0705L19.733 44.2555C24.1322 44.7535 27.6319 46.4575 30.4335 49.4651C33.2149 52.4511 34.5671 55.8027 34.5671 59.7105C34.5673 63.8838 33.2429 67.2957 30.519 70.1418Z" fill="#00A9CB"/>
<path d="M71.8265 40.8624C72.5989 34.9311 77.7946 29.564 87.3005 24.8888L88.9997 24.0533L82.1008 10.9824L80.4879 11.7963C60.1305 22.0681 49.8086 36.5861 49.8086 54.9468C49.8086 61.2855 51.8452 66.7595 55.8615 71.2166C59.9278 75.729 64.8287 78.0171 70.4293 78.0171C75.4719 78.0171 79.7229 76.2203 83.064 72.6763C86.3765 69.1629 88.0562 64.8005 88.0562 59.7101C88.0562 54.8949 86.3332 50.6038 82.9354 46.956C79.9443 43.7452 76.2133 41.7001 71.8265 40.8624ZM80.3864 70.1514C77.7308 72.9678 74.4741 74.3369 70.4293 74.3369C65.8522 74.3369 61.9814 72.5104 58.5956 68.753C55.1592 64.9395 53.4889 60.4237 53.4889 54.9468C53.4889 46.5337 55.8691 38.9382 60.5625 32.3711C65.0408 26.1062 71.7568 20.5746 80.5412 15.9124L83.9893 22.4455C73.407 28.0332 68.0449 34.7492 68.0449 42.4265V44.0666L69.6738 44.2547C73.9827 44.752 77.4394 46.4562 80.2424 49.4648C83.0238 52.4507 84.3757 55.8019 84.3757 59.7103C84.3759 63.8887 83.0708 67.3043 80.3864 70.1514Z" fill="#00A9CB"/>
</svg>
