<svg width="74" height="74" viewBox="0 0 74 74" fill="none" xmlns="http://www.w3.org/2000/svg">
<path d="M22.7305 19.6047H24.9034V21.7777H22.7305V19.6047Z" fill="#05A9CA"/>
<path d="M27.0762 19.6047H29.2491V21.7777H27.0762V19.6047Z" fill="#05A9CA"/>
<path d="M64.0639 37.2142V23.2261C64.0639 21.9262 63.9557 20.6228 63.742 19.3517L61.5991 19.7117C61.7927 20.8641 61.891 22.0465 61.891 23.2259V32.6419H59.6181C59.5995 32.2157 59.5888 31.3456 59.5888 31.3456C59.5888 31.3456 59.0543 19.6045 52.2674 14.0898C47.4794 9.82725 40.8432 8.33822 34.5711 8.83148C32.1435 6.90815 31.9546 4.08002 34.531 2.17263H40.8378C48.8421 2.17263 56.0522 6.61727 59.6544 13.772L61.5953 12.7949C59.6892 9.00893 56.7821 5.81285 53.1886 3.55229C49.4937 1.22842 45.2229 0 40.8378 0H32.9429C20.136 0 9.7168 10.4192 9.7168 23.2261V37.2142C9.7168 40.6804 11.5342 43.9355 14.472 45.7603C15.4952 53.9025 19.5038 61.355 26.0057 66.4274V74H28.1787V67.9694C30.8545 69.6952 33.7897 70.9386 36.8783 71.7015C39.9776 70.9362 42.9234 69.6766 45.6081 67.9461V74H47.781V66.4042C50.8992 63.9712 53.5693 60.8915 55.5791 57.3273C57.538 53.8533 58.7498 50.1425 59.3149 45.7564C62.2489 43.931 64.0639 40.678 64.0639 37.2142ZM61.891 34.815C61.891 37.7574 61.8229 40.5232 59.5936 42.7737C59.7547 40.1295 59.7211 37.4628 59.6795 34.815H61.891ZM11.8897 23.2261C11.8897 12.1401 20.5029 3.02862 31.3885 2.23029C29.96 4.34642 30.1158 7.25162 31.7622 9.20058C21.5336 11.1075 15.4371 19.3925 14.2543 29.415C14.1275 30.489 14.0718 31.5686 14.05 32.6419H11.8897V23.2261ZM11.8897 37.2142V34.815H14.0418C14.0626 37.471 14.0332 40.1318 14.1975 42.784C12.7437 41.322 11.8897 39.3177 11.8897 37.2142ZM57.5221 38.3027C57.5144 44.5587 56.8092 50.7221 53.6863 56.26C49.9784 62.8355 43.8635 67.6338 36.8785 69.4602C29.4168 67.5109 23.0687 62.2771 19.4315 55.0636C16.0071 48.272 16.1172 40.4597 16.2179 33.0377L19.295 29.9605C21.1154 28.1401 23.5357 27.1375 26.1105 27.1375C28.9838 27.1375 31.7556 26.0964 33.9153 24.2058L32.4839 22.5709C29.4313 25.243 25.9878 24.3912 22.45 25.5398C19.9712 26.3446 18.1963 27.9862 16.401 29.7815C16.8758 25.5999 18.2223 21.4041 20.7822 18.0195C28.5124 7.79833 47.2224 8.56624 53.9686 19.4714C55.2885 21.6051 56.1185 23.8164 56.6412 26.095C52.283 20.0283 45.5215 16.0026 37.9649 15.1522V13.0133H35.792C35.792 15.9365 35.6933 18.6616 33.8393 21.1146L35.5728 22.4248C36.723 20.9031 37.4728 19.1655 37.7905 17.3188C46.3802 18.3098 53.8861 23.9037 57.402 31.7816C57.5274 33.9102 57.5253 36.086 57.5221 38.3027Z" fill="#05A9CA"/>
<path d="M61.144 17.6464L63.2394 17.0716C63.0385 16.3389 62.7986 15.6082 62.5264 14.8997L60.498 15.6789C60.7446 16.3207 60.9619 16.9826 61.144 17.6464Z" fill="#05A9CA"/>
<path d="M35.623 4.4082H37.796V6.58112H35.623V4.4082Z" fill="#05A9CA"/>
<path d="M15.2172 58.6444V56.4714H8.72266V62.9659H10.8956V60.1809L14.646 63.9315L16.1827 62.395L12.432 58.6444H15.2172Z" fill="#05A9CA"/>
<path d="M58.7821 56.4478V58.6207H61.567L57.8164 62.3713L59.353 63.9078L63.1036 60.1571V62.9423H65.2765V56.4478H58.7821Z" fill="#05A9CA"/>
</svg>
