<svg width="74" height="74" viewBox="0 0 74 74" fill="none" xmlns="http://www.w3.org/2000/svg">
<g clip-path="url(#clip0_61_525)">
<path d="M10.7412 4.01407C10.9924 2.68597 11.0539 1.34819 11.0439 0H8.87593C8.88763 1.209 8.83791 2.41121 8.61259 3.60302L7.19922 10.7748L9.32629 11.1939L10.7412 4.01407Z" fill="#05A9CA"/>
<path d="M54.0352 44.163L54.7338 46.2152C55.4281 45.9788 56.134 45.7646 56.8318 45.5784L56.2729 43.4839C55.5282 43.6823 54.7753 43.9108 54.0352 44.163Z" fill="#05A9CA"/>
<path d="M35.957 26.1602H38.125V28.3281H35.957V26.1602Z" fill="#05A9CA"/>
<path d="M69.4879 43.9464C69.4879 39.9503 68.5012 36.2747 65.3818 33.5405C68.3266 28.743 69.37 23.0958 68.3159 17.5261L65.5737 3.61121C65.3477 2.41666 65.2971 1.21199 65.3088 0.000244141H63.1408C63.1308 1.35132 63.1933 2.69156 63.4451 4.0224L66.1873 17.9373C67.1558 23.0556 66.1627 28.2534 63.3903 32.6399H10.7935C8.02108 28.2535 7.02801 23.056 7.99507 17.9454L8.89824 13.362L6.77118 12.9429L5.86641 17.5343C4.81813 23.0744 5.84849 28.6981 8.76629 33.4829C5.77391 36.0669 4.86235 39.3652 4.59324 43.1433C3.9281 47.6234 3.64222 51.9358 4.07509 56.4955C4.67273 62.7879 6.63113 68.1534 8.85387 74.0001H11.2057L9.07298 68.4761C6.17874 60.8629 5.32746 52.6235 6.59543 44.588C11.4184 44.588 15.944 44.8958 20.5151 46.636C26.5435 48.931 32.0384 52.898 35.9567 58.0372C35.9567 63.485 35.0505 69.0489 32.5602 74.0001H34.9514C35.8701 72.1754 36.4858 70.6374 37.0406 68.6682C37.5956 70.6379 38.2137 72.1741 39.1303 74.0001H41.5572C38.9836 68.8763 38.1246 63.6869 38.1246 58.0334C41.7233 53.3146 46.8611 49.407 52.6324 47.009L51.8005 45.007C46.0158 47.4105 40.8243 51.2517 37.0405 55.9045C32.917 50.8365 27.339 46.9193 21.2399 44.6026C16.4958 42.8007 11.7772 42.42 6.76294 42.42C6.81454 39.4434 8.22314 36.6327 10.5683 34.8077H63.5131C65.8583 36.6326 67.2669 39.4434 67.3186 42.42C64.3591 42.42 61.4387 42.4038 58.5148 42.9682L58.9259 45.097C61.7373 44.5543 64.5509 44.5881 67.396 44.5881C68.4477 51.2541 68.0341 58.1288 66.1935 64.621C65.2891 67.8105 64.0064 70.8998 62.8396 74.0002H65.1378C66.4382 70.5796 67.8239 67.1847 68.7024 63.6238C70.2867 57.2009 70.5603 50.4749 69.4879 43.9464Z" fill="#05A9CA"/>
<path d="M14.1855 29.6553L14.8923 27.6044L16.9433 28.3112L16.2366 30.3621L14.1855 29.6553Z" fill="#05A9CA"/>
<path d="M17.582 17.454L19.7465 17.5775C19.7899 16.8185 19.7936 16.0572 19.7578 15.2979L17.5923 15.3997C17.6066 15.7077 17.6033 17.0812 17.582 17.454Z" fill="#05A9CA"/>
<path d="M19.4988 19.8439L17.3589 19.4956C17.2493 20.1691 17.1029 20.8445 16.9238 21.5031L19.0159 22.072C19.2146 21.3408 19.3771 20.5913 19.4988 19.8439Z" fill="#05A9CA"/>
<path d="M15.8047 7.19653L17.8903 6.60034L18.4865 8.68593L16.4009 9.28212L15.8047 7.19653Z" fill="#05A9CA"/>
<path d="M17.3898 13.3558L19.533 13.0289C19.4188 12.28 19.2637 11.5289 19.0722 10.7961L16.9746 11.3441C17.1472 12.0046 17.2868 12.6813 17.3898 13.3558Z" fill="#05A9CA"/>
<path d="M15.5957 25.5527L16.3024 23.502L18.3533 24.2087L17.6466 26.2595L15.5957 25.5527Z" fill="#05A9CA"/>
<path d="M15.1986 5.11291L17.2832 4.5173C17.0875 3.85144 16.8938 3.18226 16.7552 2.50195L14.6309 2.93468C14.7804 3.66991 14.9876 4.39314 15.1986 5.11291Z" fill="#05A9CA"/>
<path d="M59.3904 2.93468L57.266 2.50195C57.1275 3.18226 56.9334 3.8513 56.7383 4.5173L58.8227 5.11291C58.8226 5.11291 59.3002 3.37738 59.3904 2.93468Z" fill="#05A9CA"/>
<path d="M57.1406 28.29L59.1917 27.5832L59.8984 29.6341L57.8474 30.3409L57.1406 28.29Z" fill="#05A9CA"/>
<path d="M54.5215 19.8438C54.643 20.5916 54.8056 21.3411 55.0044 22.072L57.0965 21.5029C56.9172 20.8445 56.771 20.1691 56.6613 19.4956L54.5215 19.8438Z" fill="#05A9CA"/>
<path d="M55.7266 24.1875L57.7776 23.4807L58.4844 25.5317L56.4334 26.2385L55.7266 24.1875Z" fill="#05A9CA"/>
<path d="M55.5625 8.66089L56.1587 6.5753L58.2441 7.17145L57.6479 9.25704L55.5625 8.66089Z" fill="#05A9CA"/>
<path d="M56.4382 17.454C56.3993 16.77 56.3959 16.0841 56.4281 15.3997L54.2627 15.2979C54.2267 16.0572 54.2305 16.8186 54.274 17.5775L56.4382 17.454Z" fill="#05A9CA"/>
<path d="M57.0465 11.3443L54.949 10.7961C54.7575 11.5288 54.6025 12.2802 54.4883 13.029L56.6314 13.3559C56.7343 12.6813 56.8741 12.0046 57.0465 11.3443Z" fill="#05A9CA"/>
<path d="M9.94141 47.9364C9.94141 48.6695 9.95514 49.4122 9.98245 50.144L12.1488 50.0635C12.1227 49.3583 12.1094 48.6427 12.1094 47.9363H9.94141V47.9364Z" fill="#05A9CA"/>
<path d="M13.2949 69.5232L15.4109 69.0527L15.8813 71.1688L13.7654 71.6393L13.2949 69.5232Z" fill="#05A9CA"/>
<path d="M12.3535 65.2917L14.4695 64.8213L14.9399 66.9372L12.824 67.4077L12.3535 65.2917Z" fill="#05A9CA"/>
<path d="M12.4648 54.3062C12.3863 53.6041 12.32 52.8914 12.2675 52.188L10.1055 52.3489C10.1598 53.079 10.2288 53.8186 10.3103 54.5473L12.4648 54.3062Z" fill="#05A9CA"/>
<path d="M13.0938 58.514C12.9633 57.8191 12.8442 57.1134 12.7398 56.416L10.5957 56.737C10.704 57.4605 10.8275 58.193 10.9631 58.9142L13.0938 58.514Z" fill="#05A9CA"/>
<path d="M11.4121 61.0598L13.528 60.5894L13.9985 62.7054L11.8826 63.1759L11.4121 61.0598Z" fill="#05A9CA"/>
<path d="M61.5762 54.3062L63.7306 54.5473C63.8121 53.8186 63.881 53.079 63.9354 52.3489L61.7733 52.188C61.721 52.8914 61.6547 53.6041 61.5762 54.3062Z" fill="#05A9CA"/>
<path d="M58.1543 71.1992L58.6248 69.0831L60.7407 69.5536L60.2702 71.6697L58.1543 71.1992Z" fill="#05A9CA"/>
<path d="M60.9473 58.5143L63.0779 58.9143C63.2134 58.1933 63.3369 57.4606 63.4452 56.7373L61.3012 56.4163C61.1967 57.1133 61.0776 57.8194 60.9473 58.5143Z" fill="#05A9CA"/>
<path d="M64.1 47.9365H61.932C61.932 48.643 61.9187 49.3586 61.8926 50.0637L64.0591 50.1442C64.0861 49.4123 64.1 48.6696 64.1 47.9365Z" fill="#05A9CA"/>
<path d="M60.0371 62.7336L60.5076 60.6177L62.6235 61.0882L62.153 63.2041L60.0371 62.7336Z" fill="#05A9CA"/>
<path d="M59.0957 66.9666L59.5662 64.8506L61.6821 65.3211L61.2116 67.437L59.0957 66.9666Z" fill="#05A9CA"/>
<path d="M15.3613 37H17.5293V39.168H15.3613V37Z" fill="#05A9CA"/>
<path d="M19.6973 37H21.8652V39.168H19.6973V37Z" fill="#05A9CA"/>
</g>
<defs>
<clipPath id="clip0_61_525">
<rect width="74" height="74" fill="white"/>
</clipPath>
</defs>
</svg>
