<svg width="74" height="74" viewBox="0 0 74 74" fill="none" xmlns="http://www.w3.org/2000/svg">
<path d="M49.625 24.6816C48.2563 26.0076 47.4043 27.8636 47.4043 29.9199C47.4043 31.2339 47.7534 32.4656 48.3615 33.5305C47.69 34.1571 47.1366 34.9084 46.7391 35.7482C45.7536 35.0805 44.5646 34.6904 43.2845 34.6904C41.3957 34.6904 39.7061 35.5405 38.5748 36.8779C37.6253 36.281 36.5024 35.9344 35.298 35.9344C31.892 35.9344 29.1309 38.6955 29.1309 42.1015C29.1309 44.6859 30.7213 46.8978 32.9761 47.8152C33.0902 49.4838 33.8738 50.9674 35.0613 52.0005C34.6228 52.7146 34.3696 53.5548 34.3696 54.4543C34.3696 56.5814 35.7839 58.3774 37.7233 58.9552V61.9122C37.7233 62.8396 38.4751 63.5915 39.4026 63.5915C40.33 63.5915 41.0819 62.8396 41.0819 61.9122V58.6975C42.6672 57.943 43.7634 56.3269 43.7634 54.4543C43.7634 53.5549 43.5101 52.7148 43.0716 52.0005C44.3584 50.8809 45.173 49.2327 45.173 47.3931C45.173 47.1726 45.1607 46.9551 45.1379 46.7406C46.4985 46.312 47.6556 45.425 48.4278 44.2601C49.7235 45.4392 51.4455 46.158 53.3354 46.158C57.3639 46.158 60.6297 42.8921 60.6297 38.8636C60.6297 37.5495 60.2805 36.3178 59.6724 35.2529C61.0993 33.9215 61.9928 32.0254 61.9928 29.9197C61.9928 27.8636 61.1408 26.0074 59.7721 24.6815C61.1408 23.3556 61.9928 21.4995 61.9928 19.4432C61.9928 17.799 61.4485 16.2822 60.5306 15.0623C61.9963 13.7282 62.9164 11.8049 62.9164 9.66671C62.9164 5.63819 59.6505 2.37236 55.622 2.37236C52.9625 2.37236 50.6363 3.79614 49.3618 5.92248C48.0668 4.74715 46.3477 4.03086 44.4612 4.03086C43.1203 4.03086 41.8651 4.39421 40.7856 5.02552C39.6221 4.30922 38.2525 3.89529 36.786 3.89529C35.3142 3.89529 33.9403 4.3124 32.7741 5.03332C31.6917 4.3971 30.4317 4.03071 29.0852 4.03071C28.2111 4.03071 27.3732 4.18493 26.5965 4.46676C25.28 3.17191 23.4749 2.37207 21.4826 2.37207C17.4541 2.37207 14.1882 5.6379 14.1882 9.66642C14.1882 9.95418 14.2067 10.2375 14.2391 10.5166C12.0519 11.776 10.4336 14.1353 10.4336 16.8405C10.4336 18.4409 11.0948 20.4979 11.9687 21.7005C11.0948 22.9032 10.5781 24.3822 10.5781 25.9824C10.5781 30.0109 13.844 33.2768 17.8725 33.2768C21.901 33.2768 25.1668 30.0109 25.1668 25.9824C25.1668 24.382 24.6501 22.9032 23.7763 21.7005" stroke="#05A9CA" stroke-width="2.2" stroke-miterlimit="10" stroke-linecap="round" stroke-linejoin="round"/>
<path d="M25.1387 17.4587C26.2766 18.1924 27.6304 18.6199 29.085 18.6199C30.2889 18.6199 31.424 18.3272 32.4248 17.8105C33.6617 18.6719 35.1641 19.1785 36.7856 19.1785C38.4023 19.1785 39.9007 18.6751 41.1355 17.8183C42.1328 18.3303 43.2629 18.6199 44.4609 18.6199C45.5702 18.6199 46.6211 18.3712 47.5625 17.928" stroke="#05A9CA" stroke-width="2.2" stroke-miterlimit="10" stroke-linecap="round" stroke-linejoin="round"/>
<path d="M21.6455 13.6152C22.6513 15.8942 25.1394 17.4588 25.1394 17.4588" stroke="#05A9CA" stroke-width="2.2" stroke-miterlimit="10" stroke-linecap="round" stroke-linejoin="round"/>
<path d="M51.0151 14.1323C50.081 16.7189 47.5625 17.9279 47.5625 17.9279" stroke="#05A9CA" stroke-width="2.2" stroke-miterlimit="10" stroke-linecap="round" stroke-linejoin="round"/>
<path d="M59.6727 35.2532C59.6727 35.2532 58.9243 35.8351 57.2568 36.593" stroke="#05A9CA" stroke-width="2.2" stroke-miterlimit="10" stroke-linecap="round" stroke-linejoin="round"/>
<path d="M32.9766 47.8152C32.9766 47.8152 34.3729 48.4786 36.3954 48.1732" stroke="#05A9CA" stroke-width="2.2" stroke-miterlimit="10" stroke-linecap="round" stroke-linejoin="round"/>
<path d="M46.7393 35.7483C46.7393 35.7483 46.2577 36.4829 46.2875 38.0556" stroke="#05A9CA" stroke-width="2.2" stroke-miterlimit="10" stroke-linecap="round" stroke-linejoin="round"/>
<path d="M44.3398 66.1238L46.3126 68.0965" stroke="#05A9CA" stroke-width="2.2" stroke-miterlimit="10" stroke-linecap="round" stroke-linejoin="round"/>
<path d="M39.3936 68.7495L39.6076 71.531" stroke="#05A9CA" stroke-width="2.2" stroke-miterlimit="10" stroke-linecap="round" stroke-linejoin="round"/>
<path d="M46.9658 61.1777L49.7473 61.3919" stroke="#05A9CA" stroke-width="2.2" stroke-miterlimit="10" stroke-linecap="round" stroke-linejoin="round"/>
<path d="M45.7139 22.4724C46.0389 24.4548 46.9378 25.5349 48.29 26.4373" stroke="#05A9CA" stroke-width="2.2" stroke-miterlimit="10" stroke-linecap="round" stroke-linejoin="round"/>
</svg>
