<svg width="74" height="74" viewBox="0 0 74 74" fill="none" xmlns="http://www.w3.org/2000/svg">
<mask id="mask0_61_506" style="mask-type:luminance" maskUnits="userSpaceOnUse" x="0" y="0" width="74" height="74">
<path d="M73 73V1H1V73H73Z" fill="white" stroke="white" stroke-width="2"/>
</mask>
<g mask="url(#mask0_61_506)">
<path d="M42.1611 72.916H60.8172C64.0829 72.916 66.7547 70.2442 66.7547 66.9785C66.7547 63.7128 64.0823 61.041 60.8172 61.041H55.3974L35.9969 55.6185C30.8745 54.1868 31.7166 46.3854 32.0403 42.436L35.4287 1.08399H7.24512L10.7139 50.911L8.3291 64.2441C7.48937 68.9389 12.2314 72.916 17.001 72.916H35.6571M37.8252 72.916H39.9931" stroke="#05A9CA" stroke-width="2" stroke-miterlimit="22.926"/>
<path d="M10.1456 42.7454C11.9878 41.7485 13.5263 40.4123 14.8178 38.8329C15.4264 49.8353 17.5495 62.661 29.7454 65.2694C32.0644 65.7653 33.9725 61.8389 30.0154 60.8558C20.2461 58.4287 19.4363 45.6051 19.0562 36.7303C18.8433 31.7593 18.6681 26.8231 18.4185 21.8464L23.5472 25.3458V35.6921C23.5472 36.8894 24.5176 37.8601 25.715 37.8601C26.9123 37.8601 27.883 36.8894 27.883 35.6921V23.0551L24.9792 21.0739C27.0258 18.8337 28.4432 15.9912 28.9077 12.3548C29.2084 10.0025 25.1363 8.42902 24.4872 12.4545C24.0791 14.9847 22.9506 16.9919 21.3498 18.5974L18.187 16.4394L17.5291 1.08394M13.4932 8.17927L14.464 30.8422C13.3766 33.6042 11.8902 36.053 9.79883 37.7644M13.1892 1.08394L13.4004 6.01347" stroke="#05A9CA" stroke-width="2" stroke-miterlimit="22.926"/>
<path d="M27.8828 28.7015C28.7212 31.8868 31.6759 32.6782 32.9229 31.6635" stroke="#05A9CA" stroke-width="2" stroke-miterlimit="22.926"/>
<path d="M19.6475 44.6685C21.2259 46.8666 24.7285 48.491 27.6165 48.491" stroke="#05A9CA" stroke-width="2" stroke-miterlimit="22.926"/>
<path d="M17.825 54.9398C18.0155 57.6391 16.3591 61.1268 14.1377 62.9722" stroke="#05A9CA" stroke-width="2" stroke-miterlimit="22.926"/>
<path d="M41.6846 61.7102L43.7725 62.2938M45.8605 62.8775L47.9484 63.4609" stroke="#05A9CA" stroke-width="2" stroke-miterlimit="2.613"/>
</g>
</svg>
